HIERARCHY
ROOT hip
{
	OFFSET 0.000000 0.000000 0.000000 
	CHANNELS 6 Xposition Yposition Zposition Xrotation Zrotation Yrotation
	JOINT abdomen
	{
		OFFSET 0.000000 3.402643 0.000000 
		CHANNELS 3 Xrotation Zrotation Yrotation
		JOINT chest
		{
			OFFSET 0.000000 8.438565 -0.680529 
			CHANNELS 3 Xrotation Zrotation Yrotation
			JOINT neck
			{
				OFFSET 0.000000 10.207942 -0.272212 
				CHANNELS 3 Xrotation Zrotation Yrotation
				JOINT head
				{
					OFFSET 0.000000 3.130431 0.000000 
					CHANNELS 3 Xrotation Zrotation Yrotation
					End Site
					{
						OFFSET 0.000000 3.130435 0.000000 
					}
				}
			}
			JOINT lCollar
			{
				OFFSET 3.470700 6.669187 -0.816635 
				CHANNELS 3 Yrotation Zrotation Xrotation
				JOINT lShldr
				{
					OFFSET 3.198488 0.000000 0.000000 
					CHANNELS 3 Zrotation Yrotation Xrotation
					JOINT lForeArm
					{
						OFFSET 10.139888 0.000000 0.000000 
						CHANNELS 3 Yrotation Zrotation Xrotation
						JOINT lHand
						{
							OFFSET 8.370511 0.000000 0.000000 
							CHANNELS 3 Zrotation Yrotation Xrotation
							End Site
							{
								OFFSET 4.083176 0.000000 0.000000 
							}
						}
					}
				}
			}
			JOINT rCollar
			{
				OFFSET -3.470700 6.669187 -0.816635 
				CHANNELS 3 Yrotation Zrotation Xrotation
				JOINT rShldr
				{
					OFFSET -3.198488 0.000000 0.000000 
					CHANNELS 3 Zrotation Yrotation Xrotation
					JOINT rForeArm
					{
						OFFSET -10.139888 0.000000 0.000000 
						CHANNELS 3 Yrotation Zrotation Xrotation
						JOINT rHand
						{
							OFFSET -8.370511 0.000000 0.000000 
							CHANNELS 3 Zrotation Yrotation Xrotation
							End Site
							{
								OFFSET -4.083176 0.000000 0.000000 
							}
						}
					}
				}
			}
		}
	}
	JOINT lThigh
	{
		OFFSET 5.308129 -1.633274 1.361059 
		CHANNELS 3 Xrotation Zrotation Yrotation
		JOINT lShin
		{
			OFFSET -2.041588 -20.007561 0.000000 
			CHANNELS 3 Xrotation Zrotation Yrotation
			JOINT lFoot
			{
				OFFSET 0.000000 -19.190928 -1.224953 
				CHANNELS 3 Xrotation Yrotation Zrotation
				End Site
				{
					OFFSET 0.000000 -2.449906 4.627600 
				}
			}
		}
	}
	JOINT rThigh
	{
		OFFSET -5.308129 -1.633274 1.361059 
		CHANNELS 3 Xrotation Zrotation Yrotation
		JOINT rShin
		{
			OFFSET 2.041588 -20.007561 0.000000 
			CHANNELS 3 Xrotation Zrotation Yrotation
			JOINT rFoot
			{
				OFFSET 0.000000 -19.190928 -1.224953 
				CHANNELS 3 Xrotation Yrotation Zrotation
				End Site
				{
					OFFSET 0.000000 -2.449906 4.627600 
				}
			}
		}
	}
}
MOTION
Frames: 14
Frame Time: 0.016667
-0.798051 21.238642 -16.381742 -16.416288 -12.191273 6.814483 63.164673 19.577469 11.805349 6.793404 -0.136675 3.505855 -3.280257 1.782177 -0.101469 -4.698011 -6.106245 22.006245 -14.670406 5.478415 0.286015 -53.425140 -41.254642 8.821797 -100.242294 -2.973621 -0.199768 -30.542233 8.596636 13.098932 24.365686 5.064124 -0.260814 61.819687 17.317501 7.658645 53.735546 5.000000 7.145280 7.271213 -12.679408 26.705982 -96.200859 12.177913 -9.863442 135.323853 6.392475 -5.758578 -25.116856 10.595929 2.236448 -23.376024 -3.709750 -21.111853 144.982666 -1.313305 0.679755 -78.496040 -5.359899 -0.087835 
-0.801750 21.239540 -16.378881 -16.371984 -12.173349 6.753107 63.140728 19.520359 11.798284 6.793131 -0.146437 3.515620 -3.339114 1.761405 -0.108202 -4.785184 -6.089389 21.976101 -14.680172 5.478415 0.286015 -53.407692 -41.268742 8.813384 -100.262001 -2.983008 -0.204284 -30.508211 8.568430 13.126970 24.365734 5.073877 -0.261319 61.808929 17.314394 7.647041 53.772667 5.000000 7.144894 7.188065 -12.622565 26.656931 -96.225426 12.196882 -9.820388 135.374557 6.416186 -5.720213 -25.146055 10.700630 2.252127 -23.433290 -3.689126 -21.067661 144.987061 -1.289173 0.620522 -78.633728 -5.370234 -0.151685 
-0.805447 21.240437 -16.376020 -16.325619 -12.155649 6.682189 63.112053 19.462408 11.779968 6.792854 -0.156198 3.525385 -3.407438 1.742094 -0.105283 -4.872376 -6.072526 21.944929 -14.689938 5.478415 0.286016 -53.409657 -41.278267 8.836814 -100.281548 -2.982922 -0.204755 -30.481922 8.550518 13.149872 24.365734 5.073877 -0.261319 61.798172 17.311283 7.635442 53.797482 5.000000 7.154325 7.109212 -12.557367 26.611946 -96.230743 12.246152 -9.805516 135.343842 6.424546 -5.765984 -25.190266 10.782416 2.289462 -23.482014 -3.669824 -20.994274 144.981598 -1.235229 0.633506 -78.800476 -5.346809 -0.236969 
-0.811044 21.239641 -16.373171 -16.280451 -12.147626 6.613327 63.082977 19.393366 11.785516 6.792854 -0.156198 3.525385 -3.466213 1.682698 -0.106178 -4.936893 -6.071326 21.758524 -14.708610 5.490647 0.277117 -53.395176 -41.265587 8.831989 -100.310715 -2.973326 -0.201395 -30.474920 8.535688 13.205046 24.365734 5.073877 -0.261319 61.810249 17.301384 7.642582 53.821571 5.000000 7.197869 6.973441 -12.467640 26.446169 -96.264648 12.274990 -9.761713 135.374329 6.464872 -5.756278 -25.202431 10.909713 2.294990 -23.529266 -3.649069 -20.949835 144.984955 -1.211188 0.602121 -78.957329 -5.328983 -0.299302 
-0.816644 21.238842 -16.370319 -16.236443 -12.149284 6.542407 63.052292 19.341816 11.782590 6.783088 -0.156198 3.515619 -3.524719 1.634420 -0.098881 -5.010169 -6.070446 21.562408 -14.728188 5.500402 0.277621 -53.394516 -41.256176 8.848543 -100.339973 -2.973340 -0.199764 -30.457682 8.521762 13.248230 24.375500 5.073876 -0.261319 61.820385 17.300083 7.645486 53.846840 5.000000 7.237651 6.828264 -12.374560 26.284336 -96.300560 12.324277 -9.758168 135.373184 6.483002 -5.803726 -25.192690 10.989184 2.335240 -23.600584 -3.611971 -20.889635 144.981583 -1.162872 0.551448 -79.084564 -5.307472 -0.322180 
-0.822249 21.237940 -16.367458 -16.198973 -12.141456 6.461945 63.019157 19.284573 11.771385 6.782837 -0.165961 3.505853 -3.593248 1.575025 -0.099778 -5.048407 -6.082197 21.276903 -14.747719 5.500406 0.277622 -53.381023 -41.248272 8.858658 -100.359421 -2.983289 -0.194985 -30.450678 8.508266 13.266762 24.376287 5.069846 -0.270179 61.819065 17.313095 7.649949 53.850910 5.000000 7.269246 6.646647 -12.271636 26.109621 -96.307121 12.353407 -9.740724 135.383255 6.497077 -5.801205 -25.249964 11.075280 2.342459 -23.638813 -3.591686 -20.825747 144.982895 -1.143195 0.563303 -79.221230 -5.254013 -0.381282 
-0.827863 21.236925 -16.364588 -16.163626 -12.133370 6.393079 62.974617 19.232040 11.746554 6.792322 -0.175722 3.515618 -3.681281 1.505974 -0.099215 -5.063939 -6.088245 20.904068 -14.786830 5.510165 0.278127 -53.361938 -41.248211 8.858303 -100.368950 -2.993565 -0.185303 -30.436577 8.482625 13.271523 24.356852 5.089355 -0.271191 61.830444 17.320604 7.670248 53.842518 5.000000 7.305644 6.425833 -12.145458 25.912243 -96.322983 12.392332 -9.725574 135.402771 6.523362 -5.821016 -25.267305 11.180646 2.357856 -23.690138 -3.554299 -20.765028 144.988708 -1.083988 0.552285 -79.310547 -5.302185 -0.476376 
-0.833477 21.235910 -16.361719 -16.128300 -12.125261 6.322161 62.919300 19.167891 11.725832 6.801582 -0.195247 3.525382 -3.769286 1.427267 -0.097193 -5.081891 -6.103528 20.521513 -14.817037 5.507672 0.287526 -53.342854 -41.248161 8.857951 -100.388313 -3.003661 -0.178158 -30.428900 8.472279 13.278062 24.346338 5.103135 -0.262836 61.829754 17.338017 7.683410 53.826591 5.000000 7.332471 6.201582 -12.007227 25.708740 -96.351784 12.421827 -9.738775 135.421448 6.526237 -5.848842 -25.270554 11.272100 2.349735 -23.729403 -3.524805 -20.712267 144.981079 -1.065220 0.544690 -79.437447 -5.258436 -0.535005 
-0.839096 21.233154 -16.358847 -16.110430 -12.117362 6.241698 62.893051 19.104338 11.703837 6.782017 -0.195246 3.535147 -3.837672 1.300282 -0.087876 -5.091414 -6.097461 19.970892 -14.855234 5.519928 0.278634 -53.341225 -41.233997 8.866023 -100.388428 -3.023015 -0.179337 -30.398249 8.472265 13.312466 24.336573 5.103135 -0.262836 61.862041 17.347300 7.718233 53.794666 5.000000 7.384192 5.831700 -11.928194 25.553125 -96.357727 12.460723 -9.723006 135.442612 6.552756 -5.822485 -25.336861 11.324611 2.370380 -23.768957 -3.505851 -20.619511 144.983292 -1.035682 0.557770 -79.466415 -5.227465 -0.545623 
-0.844717 21.230400 -16.355978 -16.083895 -12.119144 6.161233 62.857151 19.038568 11.682032 6.771962 -0.205007 3.544912 -3.915837 1.182952 -0.080018 -5.101264 -6.090646 19.420244 -14.884581 5.529685 0.279138 -53.332355 -41.213509 8.871706 -100.388611 -3.042227 -0.182851 -30.359249 8.465031 13.339973 24.336573 5.103135 -0.262836 61.902531 17.363840 7.751763 53.755253 5.000000 7.431461 5.463477 -11.850857 25.388161 -96.366928 12.499996 -9.743772 135.433167 6.544389 -5.811332 -25.366074 11.393118 2.385478 -23.791903 -3.463137 -20.557465 144.985138 -1.035490 0.511255 -79.534630 -5.200315 -0.565677 
-0.849381 21.227047 -16.353689 -16.066063 -12.111194 6.082819 62.832207 18.971321 11.669037 6.761976 -0.214771 3.525380 -4.013667 1.035195 -0.077437 -5.111540 -6.103693 18.811346 -14.914790 5.527177 0.288533 -53.305061 -41.202370 8.860486 -100.389008 -3.061009 -0.193373 -30.336271 8.475322 13.367857 24.326761 5.093382 -0.262330 61.933525 17.386051 7.791101 53.703533 5.000000 7.496915 5.074916 -11.820453 25.277889 -96.387978 12.519457 -9.775289 135.482147 6.551071 -5.816891 -25.348837 11.456721 2.356582 -23.842375 -3.435035 -20.476151 144.987122 -1.010144 0.521105 -79.543861 -5.162416 -0.561907 
-0.853090 21.223108 -16.351984 -16.069883 -12.103001 6.011900 62.796131 18.908476 11.654016 6.761722 -0.224533 3.525379 -4.140591 0.879242 -0.063744 -5.105735 -6.118040 18.143156 -14.934319 5.527178 0.288532 -53.273174 -41.203838 8.853716 -100.389442 -3.069899 -0.206810 -30.308817 8.503562 13.408787 24.316950 5.083629 -0.261825 61.973995 17.424280 7.849515 53.639462 5.000000 7.582669 4.648218 -11.827623 25.227213 -96.376900 12.578191 -9.804123 135.471786 6.565342 -5.841468 -25.374643 11.468919 2.300036 -23.852188 -3.405502 -20.412943 144.988113 -1.005867 0.505696 -79.592598 -5.142499 -0.592554 
-0.856797 21.219166 -16.350275 -16.063957 -12.094788 5.940983 62.769829 18.845625 11.639036 6.761508 -0.234296 3.505847 -4.257882 0.721829 -0.059829 -5.103873 -6.140477 17.485680 -14.953854 5.527178 0.288533 -53.258728 -41.191193 8.848948 -100.399841 -3.097954 -0.224013 -30.288979 8.542151 13.443213 24.297419 5.083629 -0.261825 62.012543 17.471056 7.900869 53.576595 5.000000 7.666005 4.230483 -11.840336 25.173904 -96.389664 12.597584 -9.854615 135.538910 6.526221 -5.852021 -25.376162 11.563498 2.294329 -23.885368 -3.359054 -20.343637 144.988983 -0.996000 0.506956 -79.621986 -5.137688 -0.603438 
-0.859257 21.214163 -16.351648 -16.051405 -12.096059 5.881657 62.715618 18.793049 11.617692 6.761337 -0.244061 3.496080 -4.384778 0.536909 -0.041727 -5.104992 -6.191743 16.779657 -14.973335 5.517425 0.288029 -53.228832 -41.202255 8.859128 -100.390289 -3.107321 -0.230190 -30.279377 8.539882 13.444664 24.287519 5.054372 -0.260308 62.065777 17.503536 7.972327 53.479973 5.000000 7.763755 3.833926 -11.947894 25.293795 -96.401421 12.607263 -9.883800 135.539734 6.524668 -5.832946 -25.386497 11.583241 2.251517 -23.922758 -3.338288 -20.289497 144.989349 -0.995965 0.497635 -79.621078 -5.082238 -0.596644 
